<svg xmlns="http://www.w3.org/2000/svg" viewBox="0 0 600 400" width="600" height="400" role="img" aria-label="Startup illustration">
  <defs>
    <linearGradient id="g" x1="0" x2="1">
      <stop offset="0" stop-color="#60a5fa"/>
      <stop offset="1" stop-color="#34d399"/>
    </linearGradient>
  </defs>
  <rect width="100%" height="100%" fill="#fff" rx="12"/>
  <g transform="translate(60,40)">
    <rect x="0" y="200" width="420" height="12" rx="6" fill="#e6eefc"/>
    <g transform="translate(20,0)">
      <rect x="0" y="160" width="40" height="52" rx="6" fill="#bfdbfe"/>
      <rect x="70" y="120" width="40" height="92" rx="6" fill="#93c5fd"/>
      <rect x="140" y="80" width="40" height="132" rx="6" fill="#60a5fa"/>
      <rect x="210" y="40" width="40" height="172" rx="6" fill="#3b82f6"/>
      <rect x="280" y="0" width="40" height="212" rx="6" fill="url(#g)"/>
    </g>
    <g transform="translate(350,60)">
      <circle cx="38" cy="38" r="36" fill="#fff" stroke="#dbeafe" stroke-width="4"/>
      <path d="M24 44c6-6 18-18 28-12" stroke="#60a5fa" stroke-width="4" fill="none" stroke-linecap="round"/>
    </g>
    <g transform="translate(20,260)">
      <path d="M0 0 C60 -40, 120 -40, 180 0" fill="#f0f9ff"/>
    </g>
  </g>
</svg>
